# xmcd
#
# Track frame offsets:
#	150
#	16247
#	38878
#	56088
#	76859
#	92119
#	110304
#	124813
#	159233
#	180991
#	201824
#	223641
#	241560
#	266911
#	284624
#	303167
#	325226
# Disc length: 4727 seconds
# Revision: 1
# Processed by: cddbd v1.5.2PL0 Copyright (c) Steve Scherf et al.
#
# Submitted via: libkcddb 0.31
#
DISCID=e0127511
DTITLE=Big Dez - Late Live
DYEAR=2009
DGENRE=Blues
TTITLE0=Sack O' Woe
TTITLE1=You Can Smile
TTITLE2=I Knew The Bride When She Used To Rock And Roll
TTITLE3=Bad News
TTITLE4=Anywhere Please
TTITLE5=The Come Back
TTITLE6=One Way Ticket
TTITLE7=Three O'Clock Blues
TTITLE8=Call My Job
TTITLE9=Let's Have Some Fun
TTITLE10=Low Pressure
TTITLE11=Green Onions
TTITLE12=You Don't Know What Love Is
TTITLE13=Overdrive Lover
TTITLE14=Keep A Knockin
TTITLE15=I Got The Blues
TTITLE16=Givin' It Up For Your Love
EXTD=
EXTT0=
EXTT1=
EXTT2=
EXTT3=
EXTT4=
EXTT5=
EXTT6=
EXTT7=
EXTT8=
EXTT9=
EXTT10=
EXTT11=
EXTT12=
EXTT13=
EXTT14=
EXTT15=
EXTT16=
PLAYORDER=
